<svg id="Layer_1" data-name="Layer 1" xmlns="http://www.w3.org/2000/svg" viewBox="0 0 841.89 595.28"><defs><style>.cls-1{fill:#f7941d;}.cls-2{fill:#fdbd69;}.cls-3{fill:#c2b59b;}.cls-4{fill:#231f20;}.cls-5,.cls-6{fill:none;stroke-miterlimit:10;}.cls-5{stroke:#231f20;}.cls-6{stroke:#ed1c24;stroke-width:3px;}.cls-7{fill:#ed1c24;}</style></defs><rect class="cls-1" x="221.34" y="62.5" width="400" height="100"/><rect class="cls-2" x="221.34" y="184.5" width="400" height="100"/><rect class="cls-3" x="221.34" y="306.5" width="189.66" height="100"/><rect class="cls-3" x="221.34" y="428.5" width="400" height="100"/><rect class="cls-3" x="431.47" y="306.5" width="189.87" height="100"/><path class="cls-4" d="M288.06,338V323H298.2v1.78h-8.15v4.65h7.06v1.78h-7.06V338Z"/><path class="cls-4" d="M300.51,338V323h1.85v15Z"/><path class="cls-4" d="M312.32,336.65a6.88,6.88,0,0,1-2,1.23,5.67,5.67,0,0,1-2,.36,3.93,3.93,0,0,1-2.76-.88,2.87,2.87,0,0,1-1-2.24,2.91,2.91,0,0,1,.37-1.46,3,3,0,0,1,1-1.06,4.24,4.24,0,0,1,1.33-.6,12.46,12.46,0,0,1,1.64-.28,16.6,16.6,0,0,0,3.29-.64c0-.25,0-.41,0-.48a2,2,0,0,0-.52-1.59,3.12,3.12,0,0,0-2.1-.62,3.33,3.33,0,0,0-1.93.45,2.8,2.8,0,0,0-.91,1.62l-1.81-.25a4.67,4.67,0,0,1,.81-1.87,3.65,3.65,0,0,1,1.63-1.1,7.45,7.45,0,0,1,2.47-.38,6.53,6.53,0,0,1,2.27.33,3,3,0,0,1,1.28.82,2.82,2.82,0,0,1,.57,1.26,9.23,9.23,0,0,1,.1,1.7v2.46a28.93,28.93,0,0,0,.11,3.26,4.15,4.15,0,0,0,.47,1.3h-1.93A4,4,0,0,1,312.32,336.65Zm-.15-4.12a13.58,13.58,0,0,1-3,.7,6.75,6.75,0,0,0-1.61.37,1.5,1.5,0,0,0-.73.6,1.61,1.61,0,0,0,.3,2.1,2.4,2.4,0,0,0,1.64.5,3.78,3.78,0,0,0,1.89-.47,2.84,2.84,0,0,0,1.22-1.28,4.38,4.38,0,0,0,.3-1.84Z"/><path class="cls-4" d="M316.16,334.74l1.82-.28a2.58,2.58,0,0,0,.86,1.68,3,3,0,0,0,2,.58,2.92,2.92,0,0,0,1.89-.51,1.56,1.56,0,0,0,.62-1.22,1.1,1.1,0,0,0-.55-1,7.48,7.48,0,0,0-1.88-.63,16.72,16.72,0,0,1-2.82-.89,2.66,2.66,0,0,1-1.59-2.49,2.81,2.81,0,0,1,.33-1.35,2.91,2.91,0,0,1,.91-1,3.88,3.88,0,0,1,1.17-.54,5.53,5.53,0,0,1,1.6-.22,6.24,6.24,0,0,1,2.25.37,3.06,3.06,0,0,1,1.43,1,3.79,3.79,0,0,1,.63,1.68l-1.8.25a2,2,0,0,0-.71-1.31,2.59,2.59,0,0,0-1.67-.47,3,3,0,0,0-1.82.42,1.23,1.23,0,0,0-.54,1,1,1,0,0,0,.23.65,1.59,1.59,0,0,0,.7.49c.19.07.73.23,1.63.47a23.4,23.4,0,0,1,2.74.86,2.71,2.71,0,0,1,1.21,1,2.65,2.65,0,0,1,.44,1.58,3.07,3.07,0,0,1-.54,1.73,3.32,3.32,0,0,1-1.55,1.26,5.62,5.62,0,0,1-2.3.45,5.09,5.09,0,0,1-3.23-.88A4.09,4.09,0,0,1,316.16,334.74Z"/><path class="cls-4" d="M327.4,338V323h1.84v5.4a4.12,4.12,0,0,1,3.26-1.5,4.41,4.41,0,0,1,2.11.48,2.73,2.73,0,0,1,1.27,1.31,6,6,0,0,1,.39,2.44V338h-1.85v-6.9a2.84,2.84,0,0,0-.6-2,2.23,2.23,0,0,0-1.7-.63,3,3,0,0,0-1.54.42,2.46,2.46,0,0,0-1,1.16,5.36,5.36,0,0,0-.31,2V338Z"/><path class="cls-4" d="M510,340V325h6.67a8.79,8.79,0,0,1,3.05.41,3.27,3.27,0,0,1,1.67,1.43,4.23,4.23,0,0,1,.63,2.26,3.79,3.79,0,0,1-1,2.7,5.18,5.18,0,0,1-3.2,1.39,5.46,5.46,0,0,1,1.2.75,10.26,10.26,0,0,1,1.66,2l2.61,4.09h-2.5l-2-3.12q-.87-1.35-1.44-2.07a4.32,4.32,0,0,0-1-1,3.11,3.11,0,0,0-.9-.4,5.91,5.91,0,0,0-1.11-.07H512V340Zm2-8.39h4.28a6.6,6.6,0,0,0,2.13-.28,2.29,2.29,0,0,0,1.17-.91,2.4,2.4,0,0,0,.4-1.35,2.23,2.23,0,0,0-.78-1.75,3.59,3.59,0,0,0-2.44-.69H512Z"/><path class="cls-4" d="M523.48,340l5.77-15h2.14l6.15,15h-2.26l-1.76-4.55h-6.28L525.59,340Zm4.33-6.17h5.1l-1.57-4.16c-.48-1.27-.83-2.3-1.07-3.12a18.62,18.62,0,0,1-.81,2.87Z"/><path class="cls-4" d="M539.07,340V325h3l3.55,10.65q.5,1.49.72,2.22c.17-.55.44-1.35.8-2.41l3.6-10.46h2.68v15H551.5V327.41L547.13,340h-1.79L541,327.2V340Z"/><path class="cls-4" d="M404,242.5v-15h5.18a12.15,12.15,0,0,1,2.68.22,5.11,5.11,0,0,1,2.2,1.08,6,6,0,0,1,1.78,2.56,10.22,10.22,0,0,1,.59,3.58,10.35,10.35,0,0,1-.4,3,7.43,7.43,0,0,1-1,2.19,5.53,5.53,0,0,1-1.36,1.37,5.67,5.67,0,0,1-1.8.75,10.29,10.29,0,0,1-2.41.26Zm2-1.78h3.21a7.57,7.57,0,0,0,2.33-.28,3.26,3.26,0,0,0,1.35-.77,4.79,4.79,0,0,0,1.1-1.91,9,9,0,0,0,.4-2.89,7,7,0,0,0-.78-3.63,3.9,3.9,0,0,0-1.88-1.7,7.93,7.93,0,0,0-2.57-.3H406Z"/><path class="cls-4" d="M417.48,242.5l5.77-15h2.14l6.15,15h-2.26l-1.76-4.56h-6.28l-1.65,4.56Zm4.33-6.18h5.1l-1.57-4.16c-.48-1.27-.83-2.3-1.07-3.12a18.62,18.62,0,0,1-.81,2.87Z"/><path class="cls-4" d="M433.13,242.5v-15h5.67a13.17,13.17,0,0,1,2.29.15,4.44,4.44,0,0,1,1.86.7,3.61,3.61,0,0,1,1.2,1.45,4.54,4.54,0,0,1,.46,2.05,4.65,4.65,0,0,1-1.22,3.25q-1.23,1.32-4.41,1.32h-3.86v6.12Zm2-7.89H439a4.13,4.13,0,0,0,2.74-.72,2.56,2.56,0,0,0,.81-2,2.69,2.69,0,0,0-.48-1.61,2.22,2.22,0,0,0-1.26-.89,8.41,8.41,0,0,0-1.85-.13h-3.85Z"/><path class="cls-4" d="M382.73,124.17V109.11h1.68v1.41a4.15,4.15,0,0,1,1.34-1.25,3.77,3.77,0,0,1,1.82-.41,4.31,4.31,0,0,1,2.46.72,4.46,4.46,0,0,1,1.61,2,7.45,7.45,0,0,1,.54,2.87,7.29,7.29,0,0,1-.6,3,4.54,4.54,0,0,1-4.15,2.76,3.44,3.44,0,0,1-1.65-.39,3.92,3.92,0,0,1-1.21-1v5.3Zm1.67-9.56a4.73,4.73,0,0,0,.85,3.11,2.6,2.6,0,0,0,2.06,1,2.66,2.66,0,0,0,2.11-1,5,5,0,0,0,.87-3.22,4.82,4.82,0,0,0-.85-3.12,2.58,2.58,0,0,0-2.05-1,2.65,2.65,0,0,0-2.09,1.1A4.94,4.94,0,0,0,384.4,114.61Z"/><path class="cls-4" d="M394.38,120V109.11h1.67v1.65a4.32,4.32,0,0,1,1.17-1.53,2,2,0,0,1,1.18-.37,3.63,3.63,0,0,1,1.9.59l-.64,1.72a2.6,2.6,0,0,0-1.35-.4,1.8,1.8,0,0,0-1.09.36,1.92,1.92,0,0,0-.68,1,7,7,0,0,0-.31,2.15V120Z"/><path class="cls-4" d="M400.71,114.55a5.61,5.61,0,0,1,1.68-4.48,5.06,5.06,0,0,1,3.43-1.21,4.9,4.9,0,0,1,3.67,1.47,5.6,5.6,0,0,1,1.42,4.07,7.17,7.17,0,0,1-.63,3.3,4.4,4.4,0,0,1-1.83,1.87,5.3,5.3,0,0,1-2.63.67,4.92,4.92,0,0,1-3.7-1.46A5.87,5.87,0,0,1,400.71,114.55Zm1.9,0a4.62,4.62,0,0,0,.91,3.13,3,3,0,0,0,4.58,0,4.74,4.74,0,0,0,.92-3.19,4.49,4.49,0,0,0-.92-3.06,2.89,2.89,0,0,0-2.28-1,2.93,2.93,0,0,0-2.3,1A4.62,4.62,0,0,0,402.61,114.55Z"/><path class="cls-4" d="M414.78,120h-1.71V105h1.84v5.37a3.66,3.66,0,0,1,3-1.47,4.56,4.56,0,0,1,1.9.4,3.79,3.79,0,0,1,1.47,1.14,5.48,5.48,0,0,1,.91,1.77,7.27,7.27,0,0,1,.33,2.22,6.23,6.23,0,0,1-1.38,4.32,4.34,4.34,0,0,1-3.33,1.53,3.47,3.47,0,0,1-3-1.61Zm0-5.53a5.73,5.73,0,0,0,.53,2.83,2.64,2.64,0,0,0,4.45.37,4.75,4.75,0,0,0,.88-3.13,4.9,4.9,0,0,0-.84-3.15,2.61,2.61,0,0,0-2-1,2.66,2.66,0,0,0-2.09,1.05A4.59,4.59,0,0,0,414.76,114.47Z"/><path class="cls-4" d="M432.21,116.49l1.91.23a4.68,4.68,0,0,1-1.67,2.6,5.09,5.09,0,0,1-3.12.92,5,5,0,0,1-3.79-1.47,5.77,5.77,0,0,1-1.4-4.13,6,6,0,0,1,1.42-4.26,4.78,4.78,0,0,1,3.67-1.52,4.69,4.69,0,0,1,3.57,1.49,5.9,5.9,0,0,1,1.38,4.18c0,.11,0,.27,0,.49h-8.12a4.19,4.19,0,0,0,1,2.75,3,3,0,0,0,2.28,1,2.78,2.78,0,0,0,1.73-.53A3.49,3.49,0,0,0,432.21,116.49Zm-6.06-3h6.08a3.64,3.64,0,0,0-.7-2.06,2.81,2.81,0,0,0-2.28-1.06,2.93,2.93,0,0,0-2.14.85A3.34,3.34,0,0,0,426.15,113.5Z"/><path class="cls-4" d="M435.72,115.48v-1.85h5.67v1.85Z"/><path class="cls-4" d="M443.41,120V109.11h1.66v1.65a4.32,4.32,0,0,1,1.17-1.53,2,2,0,0,1,1.19-.37,3.63,3.63,0,0,1,1.89.59l-.63,1.72a2.6,2.6,0,0,0-1.35-.4,1.76,1.76,0,0,0-1.09.36,2,2,0,0,0-.69,1,7.35,7.35,0,0,0-.31,2.15V120Z"/><path class="cls-4" d="M449.68,116.74l1.83-.28a2.57,2.57,0,0,0,.85,1.68,3,3,0,0,0,2,.58,2.92,2.92,0,0,0,1.89-.51,1.55,1.55,0,0,0,.61-1.22,1.11,1.11,0,0,0-.54-1,7.77,7.77,0,0,0-1.89-.63,16.84,16.84,0,0,1-2.81-.89,2.69,2.69,0,0,1-1.19-1A2.75,2.75,0,0,1,450,112a2.81,2.81,0,0,1,.33-1.35,3.11,3.11,0,0,1,.91-1,4,4,0,0,1,1.18-.54,5.41,5.41,0,0,1,1.59-.22,6.24,6.24,0,0,1,2.25.37,3,3,0,0,1,1.43,1,3.91,3.91,0,0,1,.64,1.69l-1.81.24a2,2,0,0,0-.71-1.31,2.58,2.58,0,0,0-1.67-.47,3,3,0,0,0-1.81.42,1.23,1.23,0,0,0-.54,1,1,1,0,0,0,.22.65,1.63,1.63,0,0,0,.71.49c.18.07.73.23,1.63.47a23.07,23.07,0,0,1,2.73.86,2.59,2.59,0,0,1,1.66,2.55,3.07,3.07,0,0,1-.54,1.73,3.5,3.5,0,0,1-1.55,1.27,5.82,5.82,0,0,1-2.3.44,5.13,5.13,0,0,1-3.24-.88A4.14,4.14,0,0,1,449.68,116.74Z"/><path class="cls-4" d="M416.69,480.72l2,.51a6.7,6.7,0,0,1-2.25,3.73,6.21,6.21,0,0,1-4,1.29,7.12,7.12,0,0,1-3.95-1,6.15,6.15,0,0,1-2.32-2.86,10.24,10.24,0,0,1-.79-4,9,9,0,0,1,.89-4.1,6.15,6.15,0,0,1,2.56-2.66,7.5,7.5,0,0,1,3.64-.9,6.21,6.21,0,0,1,3.8,1.14,6,6,0,0,1,2.14,3.23l-2,.47a4.59,4.59,0,0,0-1.52-2.39,4,4,0,0,0-2.5-.75,4.86,4.86,0,0,0-2.89.83,4.34,4.34,0,0,0-1.64,2.23,9.69,9.69,0,0,0,.09,6.23,4.14,4.14,0,0,0,1.73,2.14,4.92,4.92,0,0,0,2.56.71,4.25,4.25,0,0,0,2.83-1A5,5,0,0,0,416.69,480.72Z"/><path class="cls-4" d="M421.13,486V471h5.67a13,13,0,0,1,2.28.15,4.44,4.44,0,0,1,1.86.7,3.61,3.61,0,0,1,1.2,1.45,4.54,4.54,0,0,1,.46,2.05,4.65,4.65,0,0,1-1.22,3.25q-1.22,1.32-4.41,1.32h-3.85V486Zm2-7.88H427a4.11,4.11,0,0,0,2.74-.72,2.56,2.56,0,0,0,.81-2,2.67,2.67,0,0,0-.48-1.61,2.17,2.17,0,0,0-1.25-.89,8.58,8.58,0,0,0-1.86-.13h-3.84Z"/><path class="cls-4" d="M445,471h2v8.69a10.08,10.08,0,0,1-.52,3.6,4.35,4.35,0,0,1-1.85,2.17,6.61,6.61,0,0,1-3.51.83,7.12,7.12,0,0,1-3.45-.73,4.09,4.09,0,0,1-1.92-2.1,10.11,10.11,0,0,1-.58-3.77V471h2v8.68a8.23,8.23,0,0,0,.37,2.88,2.73,2.73,0,0,0,1.25,1.43,4.28,4.28,0,0,0,2.17.51,4.1,4.1,0,0,0,3.12-1c.63-.66.94-1.94.94-3.82Z"/><rect class="cls-5" x="444.5" y="359.09" width="70" height="40"/><path class="cls-4" d="M460.4,385.69v-15h5.18a12.83,12.83,0,0,1,2.67.21,5.15,5.15,0,0,1,2.21,1.08,6.23,6.23,0,0,1,1.78,2.57,10.12,10.12,0,0,1,.59,3.57,10.82,10.82,0,0,1-.4,3,7.43,7.43,0,0,1-1,2.19,5.06,5.06,0,0,1-3.16,2.11,9.81,9.81,0,0,1-2.42.26Zm2-1.77h3.21a7.89,7.89,0,0,0,2.33-.28,3.54,3.54,0,0,0,1.35-.78,4.75,4.75,0,0,0,1.1-1.9,9.42,9.42,0,0,0,.39-2.9,6.94,6.94,0,0,0-.77-3.62,3.9,3.9,0,0,0-1.88-1.7,7.61,7.61,0,0,0-2.57-.31h-3.16Z"/><path class="cls-4" d="M482.43,384.35a6.88,6.88,0,0,1-2,1.23,5.68,5.68,0,0,1-2,.36,4,4,0,0,1-2.75-.88,2.87,2.87,0,0,1-1-2.24,2.91,2.91,0,0,1,.37-1.46,3,3,0,0,1,.95-1.06,4.38,4.38,0,0,1,1.33-.61,14.43,14.43,0,0,1,1.64-.28,16,16,0,0,0,3.29-.63c0-.25,0-.41,0-.48a2,2,0,0,0-.52-1.59,3.09,3.09,0,0,0-2.11-.63,3.24,3.24,0,0,0-1.92.46,2.8,2.8,0,0,0-.92,1.61l-1.8-.24a4.35,4.35,0,0,1,.81-1.87,3.5,3.5,0,0,1,1.63-1.1,7.15,7.15,0,0,1,2.47-.39,6.53,6.53,0,0,1,2.27.33,3,3,0,0,1,1.28.83,3,3,0,0,1,.57,1.25,10.48,10.48,0,0,1,.1,1.71v2.46a26.37,26.37,0,0,0,.11,3.25,4.2,4.2,0,0,0,.47,1.31H482.8A4,4,0,0,1,482.43,384.35Zm-.15-4.12a13.82,13.82,0,0,1-3,.69,7,7,0,0,0-1.62.37,1.64,1.64,0,0,0-.72.6,1.63,1.63,0,0,0,.3,2.11,2.39,2.39,0,0,0,1.63.49,3.8,3.8,0,0,0,1.9-.47,2.82,2.82,0,0,0,1.22-1.27,4.43,4.43,0,0,0,.3-1.85Z"/><path class="cls-4" d="M491,384l.26,1.63a6.74,6.74,0,0,1-1.39.16,3.19,3.19,0,0,1-1.56-.31,1.8,1.8,0,0,1-.78-.84,6.69,6.69,0,0,1-.22-2.18v-6.26H486V374.8h1.36v-2.7l1.83-1.1v3.8H491v1.44h-1.86v6.36a3.06,3.06,0,0,0,.1,1,.74.74,0,0,0,.32.36,1.18,1.18,0,0,0,.63.13A5.74,5.74,0,0,0,491,384Z"/><path class="cls-4" d="M500,384.35a7.05,7.05,0,0,1-2,1.23,5.67,5.67,0,0,1-2,.36,4,4,0,0,1-2.76-.88,2.89,2.89,0,0,1-1-2.24,3,3,0,0,1,.36-1.46,3,3,0,0,1,.95-1.06,4.61,4.61,0,0,1,1.33-.61,14.43,14.43,0,0,1,1.64-.28,16,16,0,0,0,3.29-.63c0-.25,0-.41,0-.48a2,2,0,0,0-.52-1.59,3.06,3.06,0,0,0-2.1-.63,3.19,3.19,0,0,0-1.92.46,2.74,2.74,0,0,0-.92,1.61l-1.81-.24a4.61,4.61,0,0,1,.81-1.87,3.5,3.5,0,0,1,1.63-1.1,7.19,7.19,0,0,1,2.47-.39,6.53,6.53,0,0,1,2.27.33,3,3,0,0,1,1.28.83,2.84,2.84,0,0,1,.58,1.25,10.82,10.82,0,0,1,.09,1.71v2.46a25.57,25.57,0,0,0,.12,3.25,4.18,4.18,0,0,0,.46,1.31h-1.92A3.62,3.62,0,0,1,500,384.35Zm-.16-4.12a13.67,13.67,0,0,1-3,.69,6.75,6.75,0,0,0-1.61.37,1.62,1.62,0,0,0-.73.6,1.63,1.63,0,0,0,.3,2.11,2.42,2.42,0,0,0,1.64.49,3.85,3.85,0,0,0,1.9-.47,2.87,2.87,0,0,0,1.22-1.27,4.63,4.63,0,0,0,.29-1.85Z"/><rect class="cls-5" x="539.18" y="359.09" width="70" height="40"/><path class="cls-4" d="M553.42,385.69l5.78-15h2.14l6.15,15h-2.27l-1.75-4.55h-6.28l-1.65,4.55Zm4.34-6.17h5.1l-1.57-4.17c-.48-1.26-.84-2.3-1.07-3.11a19,19,0,0,1-.81,2.87Z"/><path class="cls-4" d="M568.8,385.69v-15h1.85v15Z"/><path class="cls-4" d="M573.17,386.59l1.8.27a1.7,1.7,0,0,0,.62,1.21,3.11,3.11,0,0,0,1.88.51,3.33,3.33,0,0,0,2-.51,2.51,2.51,0,0,0,.94-1.44,11.25,11.25,0,0,0,.13-2.37,3.76,3.76,0,0,1-3,1.43,4.11,4.11,0,0,1-3.48-1.62,6.25,6.25,0,0,1-1.23-3.89,7.17,7.17,0,0,1,.57-2.87,4.5,4.5,0,0,1,1.63-2,4.44,4.44,0,0,1,2.52-.72,3.91,3.91,0,0,1,3.18,1.56V374.8h1.7v9.41a8.86,8.86,0,0,1-.52,3.61,3.72,3.72,0,0,1-1.64,1.67,5.69,5.69,0,0,1-2.76.62,5.18,5.18,0,0,1-3.15-.88A3,3,0,0,1,573.17,386.59Zm1.53-6.54a4.72,4.72,0,0,0,.85,3.13,2.82,2.82,0,0,0,4.27,0,4.58,4.58,0,0,0,.86-3.07,4.45,4.45,0,0,0-.89-3,2.73,2.73,0,0,0-2.14-1,2.69,2.69,0,0,0-2.09,1A4.48,4.48,0,0,0,574.7,380.05Z"/><path class="cls-4" d="M584.5,380.24a5.62,5.62,0,0,1,1.68-4.48,5.11,5.11,0,0,1,3.43-1.21,4.85,4.85,0,0,1,3.67,1.48,5.58,5.58,0,0,1,1.43,4.06,7.21,7.21,0,0,1-.64,3.31,4.46,4.46,0,0,1-1.83,1.87,5.38,5.38,0,0,1-2.63.67,4.89,4.89,0,0,1-3.7-1.47A5.87,5.87,0,0,1,584.5,380.24Zm1.9,0a4.65,4.65,0,0,0,.91,3.14,3,3,0,0,0,4.59,0,4.78,4.78,0,0,0,.91-3.19,4.53,4.53,0,0,0-.92-3.06,3,3,0,0,0-4.58,0A4.59,4.59,0,0,0,586.4,380.24Z"/><rect class="cls-5" x="275.5" y="359.09" width="70" height="40"/><path class="cls-4" d="M291.4,385.69v-15h5.18a12.83,12.83,0,0,1,2.67.21,5.15,5.15,0,0,1,2.21,1.08,6.23,6.23,0,0,1,1.78,2.57,10.12,10.12,0,0,1,.59,3.57,10.82,10.82,0,0,1-.4,3,7.43,7.43,0,0,1-1,2.19,5.06,5.06,0,0,1-3.16,2.11,9.81,9.81,0,0,1-2.42.26Zm2-1.77h3.21a7.89,7.89,0,0,0,2.33-.28,3.54,3.54,0,0,0,1.35-.78,4.75,4.75,0,0,0,1.1-1.9,9.42,9.42,0,0,0,.39-2.9,6.94,6.94,0,0,0-.77-3.62,3.9,3.9,0,0,0-1.88-1.7,7.61,7.61,0,0,0-2.57-.31h-3.16Z"/><path class="cls-4" d="M313.43,384.35a6.88,6.88,0,0,1-2,1.23,5.68,5.68,0,0,1-2,.36,4,4,0,0,1-2.75-.88,2.87,2.87,0,0,1-1-2.24,2.91,2.91,0,0,1,.37-1.46,3,3,0,0,1,.95-1.06,4.49,4.49,0,0,1,1.33-.61,14.43,14.43,0,0,1,1.64-.28,16,16,0,0,0,3.29-.63c0-.25,0-.41,0-.48a2,2,0,0,0-.52-1.59,3.09,3.09,0,0,0-2.11-.63,3.24,3.24,0,0,0-1.92.46,2.8,2.8,0,0,0-.92,1.61l-1.8-.24a4.35,4.35,0,0,1,.81-1.87,3.5,3.5,0,0,1,1.63-1.1,7.15,7.15,0,0,1,2.47-.39,6.53,6.53,0,0,1,2.27.33,3,3,0,0,1,1.28.83,3,3,0,0,1,.57,1.25,9.43,9.43,0,0,1,.1,1.71v2.46a26.37,26.37,0,0,0,.11,3.25,4.2,4.2,0,0,0,.47,1.31H313.8A4,4,0,0,1,313.43,384.35Zm-.15-4.12a13.82,13.82,0,0,1-3,.69,6.75,6.75,0,0,0-1.61.37,1.62,1.62,0,0,0-.73.6,1.63,1.63,0,0,0,.3,2.11,2.4,2.4,0,0,0,1.64.49,3.78,3.78,0,0,0,1.89-.47,2.82,2.82,0,0,0,1.22-1.27,4.43,4.43,0,0,0,.3-1.85Z"/><path class="cls-4" d="M322,384l.26,1.63a6.74,6.74,0,0,1-1.39.16,3.19,3.19,0,0,1-1.56-.31,1.8,1.8,0,0,1-.78-.84,6.69,6.69,0,0,1-.22-2.18v-6.26H317V374.8h1.36v-2.7l1.83-1.1v3.8H322v1.44h-1.86v6.36a3.06,3.06,0,0,0,.1,1,.74.74,0,0,0,.32.36,1.18,1.18,0,0,0,.63.13A5.74,5.74,0,0,0,322,384Z"/><path class="cls-4" d="M331,384.35a6.92,6.92,0,0,1-2,1.23,5.67,5.67,0,0,1-2,.36,4,4,0,0,1-2.76-.88,2.89,2.89,0,0,1-1-2.24,3,3,0,0,1,.36-1.46,3,3,0,0,1,.95-1.06,4.61,4.61,0,0,1,1.33-.61,14.43,14.43,0,0,1,1.64-.28,16,16,0,0,0,3.29-.63c0-.25,0-.41,0-.48a2,2,0,0,0-.52-1.59,3.06,3.06,0,0,0-2.1-.63,3.19,3.19,0,0,0-1.92.46,2.74,2.74,0,0,0-.92,1.61l-1.81-.24a4.61,4.61,0,0,1,.81-1.87,3.5,3.5,0,0,1,1.63-1.1,7.21,7.21,0,0,1,2.48-.39,6.5,6.5,0,0,1,2.26.33,3,3,0,0,1,1.28.83,2.84,2.84,0,0,1,.58,1.25,10.82,10.82,0,0,1,.09,1.71v2.46a25.57,25.57,0,0,0,.12,3.25,4.18,4.18,0,0,0,.46,1.31h-1.92A3.62,3.62,0,0,1,331,384.35Zm-.16-4.12a13.67,13.67,0,0,1-3,.69,6.75,6.75,0,0,0-1.61.37,1.62,1.62,0,0,0-.73.6,1.63,1.63,0,0,0,.3,2.11,2.42,2.42,0,0,0,1.64.49,3.85,3.85,0,0,0,1.9-.47,2.87,2.87,0,0,0,1.22-1.27,4.63,4.63,0,0,0,.29-1.85Z"/><line class="cls-6" x1="245.03" y1="106.74" x2="245.03" y2="315.34"/><polygon class="cls-7" points="233.92 115.16 245.03 110.44 256.13 115.16 245.03 88.83 233.92 115.16"/><polygon class="cls-7" points="233.92 306.91 245.03 311.63 256.13 306.91 245.03 333.25 233.92 306.91"/><line class="cls-6" x1="55.95" y1="230.96" x2="182.51" y2="230.96"/><path class="cls-4" d="M56.49,221.34l1.07-.09a2.46,2.46,0,0,0,.35,1.06,2,2,0,0,0,.87.66,3.27,3.27,0,0,0,1.32.26,3.09,3.09,0,0,0,1.14-.2,1.45,1.45,0,0,0,.74-.53,1.17,1.17,0,0,0,.25-.73,1.11,1.11,0,0,0-.24-.71,1.64,1.64,0,0,0-.77-.5,15,15,0,0,0-1.53-.42A7.76,7.76,0,0,1,58,219.6a2.25,2.25,0,0,1-.91-.8,1.89,1.89,0,0,1-.31-1.07,2.21,2.21,0,0,1,.37-1.21,2.28,2.28,0,0,1,1.08-.86,4,4,0,0,1,1.58-.3,4.38,4.38,0,0,1,1.68.31,2.43,2.43,0,0,1,1.12.91,2.54,2.54,0,0,1,.43,1.35L62,218a1.77,1.77,0,0,0-.6-1.23,2.37,2.37,0,0,0-1.5-.41,2.44,2.44,0,0,0-1.5.37,1.17,1.17,0,0,0-.47.92,1,1,0,0,0,.33.76A4.55,4.55,0,0,0,60,219a11,11,0,0,1,1.9.55,2.64,2.64,0,0,1,1.11.87,2.21,2.21,0,0,1,.35,1.23,2.37,2.37,0,0,1-.39,1.29,2.57,2.57,0,0,1-1.13.94,3.84,3.84,0,0,1-1.65.34,5.1,5.1,0,0,1-2-.34,2.81,2.81,0,0,1-1.23-1A2.86,2.86,0,0,1,56.49,221.34Z"/><path class="cls-4" d="M64.72,224.1v-8.59h1v8.59Z"/><path class="cls-4" d="M67,221a3.2,3.2,0,0,1,1-2.56,2.87,2.87,0,0,1,2-.69,2.79,2.79,0,0,1,2.1.84,3.2,3.2,0,0,1,.82,2.32,4.12,4.12,0,0,1-.37,1.89,2.55,2.55,0,0,1-1,1.07,3.11,3.11,0,0,1-1.51.38,2.79,2.79,0,0,1-2.11-.84A3.31,3.31,0,0,1,67,221Zm1.08,0a2.64,2.64,0,0,0,.52,1.79,1.75,1.75,0,0,0,2.62,0,2.72,2.72,0,0,0,.52-1.83,2.55,2.55,0,0,0-.52-1.74,1.67,1.67,0,0,0-1.31-.6,1.7,1.7,0,0,0-1.31.59A2.64,2.64,0,0,0,68.1,221Z"/><path class="cls-4" d="M75.23,224.1l-1.9-6.22h1.09l1,3.59.36,1.34.33-1.29,1-3.64h1.08l.93,3.61.31,1.19.36-1.2,1.07-3.6h1l-1.94,6.22h-1.1l-1-3.73-.24-1.06-1.26,4.79Z"/></svg>