<svg id="Layer_1" data-name="Layer 1" xmlns="http://www.w3.org/2000/svg" viewBox="0 0 841.89 595.28"><defs><style>.cls-1{fill:#f7941d;}.cls-2{fill:#fdbd69;}.cls-3{fill:#c2b59b;}.cls-4,.cls-6{font-size:21px;fill:#231f20;font-family:MyriadPro-Regular, Myriad Pro;}.cls-4{letter-spacing:-0.02em;}.cls-5{letter-spacing:0em;}.cls-7{letter-spacing:0em;}.cls-8{letter-spacing:0em;}.cls-9{letter-spacing:-0.01em;}.cls-10{letter-spacing:-0.01em;}.cls-11{letter-spacing:0em;}.cls-12{letter-spacing:0.03em;}.cls-13{letter-spacing:0em;}.cls-14,.cls-17,.cls-19{fill:none;stroke-miterlimit:10;}.cls-14{stroke:#231f20;}.cls-15{letter-spacing:0em;}.cls-16{letter-spacing:0em;}.cls-17{stroke:#00a651;}.cls-17,.cls-19{stroke-width:3px;}.cls-18{fill:#00a651;}.cls-19{stroke:#ed1c24;}.cls-20{fill:#ed1c24;}</style></defs><rect class="cls-1" x="204.31" y="104.19" width="400" height="100"/><rect class="cls-2" x="204.31" y="226.19" width="400" height="100"/><rect class="cls-3" x="204.31" y="348.19" width="189.66" height="100"/><rect class="cls-3" x="204.31" y="470.19" width="400" height="100"/><rect class="cls-3" x="414.43" y="348.19" width="189.87" height="100"/><text class="cls-4" transform="translate(269.31 379.69)">F<tspan class="cls-5" x="9.87" y="0">lash</tspan></text><text class="cls-6" transform="translate(491.31 381.69)"><tspan class="cls-7">R</tspan><tspan class="cls-8" x="11.4" y="0">A</tspan><tspan x="24.17" y="0">M</tspan></text><text class="cls-6" transform="translate(385.31 284.19)"><tspan class="cls-9">D</tspan><tspan x="13.69" y="0">AP</tspan></text><text class="cls-6" transform="translate(364.31 161.69)">p<tspan class="cls-10" x="11.95" y="0">r</tspan><tspan class="cls-11" x="18.61" y="0">ob</tspan><tspan class="cls-12" x="42.08" y="0">e</tspan><tspan class="cls-13" x="53.19" y="0">-rs</tspan></text><text class="cls-6" transform="translate(387.31 527.69)">CPU</text><rect class="cls-14" x="427.47" y="400.79" width="70" height="40"/><text class="cls-6" transform="translate(441.74 427.39)">D<tspan class="cls-15" x="13.99" y="0">a</tspan><tspan class="cls-11" x="24.02" y="0">ta</tspan></text><rect class="cls-14" x="522.15" y="400.79" width="70" height="40"/><text class="cls-6" transform="translate(536.42 427.39)"><tspan class="cls-16">A</tspan><tspan x="12.79" y="0">lgo</tspan></text><rect class="cls-14" x="258.47" y="400.79" width="70" height="40"/><text class="cls-6" transform="translate(272.74 427.39)">D<tspan class="cls-15" x="13.99" y="0">a</tspan><tspan class="cls-11" x="24.02" y="0">ta</tspan></text><line class="cls-17" x1="580.73" y1="148.43" x2="580.73" y2="357.04"/><polygon class="cls-18" points="569.62 156.86 580.73 152.14 591.84 156.86 580.73 130.53 569.62 156.86"/><polygon class="cls-18" points="569.62 348.61 580.73 353.33 591.84 348.61 580.73 374.95 569.62 348.61"/><line class="cls-19" x1="227.99" y1="148.43" x2="227.99" y2="357.04"/><polygon class="cls-20" points="216.88 156.86 227.99 152.14 239.1 156.86 227.99 130.53 216.88 156.86"/><polygon class="cls-20" points="216.88 348.61 227.99 353.33 239.1 348.61 227.99 374.95 216.88 348.61"/><path class="cls-17" d="M577.07,470.38c-7.13,29.16-25.52,84.54-62.58,85.32-87.45,1.84-175.09,7.18-227.62-3.23-41.08-8.14-53.53-58.85-57.28-86.44"/><polygon class="cls-18" points="564.32 476.26 576.17 473.98 586.04 480.94 580.73 452.85 564.32 476.26"/><polygon class="cls-18" points="241.6 473.33 230.09 469.71 219.49 475.48 227.99 448.19 241.6 473.33"/></svg>